<svg width="210" height="45" viewBox="0 0 210 45" fill="none" xmlns="http://www.w3.org/2000/svg">
<g clip-path="url(#clip0_13862_135)">
<path d="M37.5492 10.7644C37.4421 4.13118 30.5549 -1.2761 28.6281 7.54815C29.7866 7.16744 31.0235 7.09099 32.22 7.32613C33.4166 7.56127 34.5326 8.10011 35.4608 8.89089" fill="#293244"/>
<path d="M32.7274 15.3014C32.994 15.2167 33.2297 15.0552 33.4049 14.837C33.58 14.6189 33.6869 14.3539 33.712 14.0753C33.7371 13.7966 33.6794 13.5168 33.5461 13.2708C33.4128 13.0249 33.2098 12.8238 32.9626 12.6927C32.7154 12.5617 32.4351 12.5066 32.1567 12.5343C31.8783 12.562 31.6143 12.6713 31.3978 12.8485C31.1813 13.0256 31.0219 13.2628 30.9397 13.5302C30.8575 13.7976 30.856 14.0834 30.9356 14.3516C30.9881 14.5333 31.0767 14.7027 31.196 14.8495C31.3154 14.9963 31.463 15.1176 31.6302 15.2063C31.7973 15.2949 31.9806 15.349 32.1691 15.3653C32.3576 15.3817 32.5475 15.3599 32.7274 15.3014ZM4.27194 26.3214C4.27194 26.3214 1.43275 18.6591 10.1924 14.6121C15.1302 12.916 16.689 15.2851 21.0135 12.1183C24.7167 9.04251 26.417 9.50274 26.417 9.50274C23.1862 12.1765 24.616 19.5117 28.1005 18.7394C25.8528 18.6244 23.1529 9.49542 31.1112 7.60783C35.4051 6.74561 39.5591 11.1599 38.3569 16.3086C37.932 18.4417 37.7198 23.144 42.3467 23.3747C45.7895 23.3923 46.1216 20.9953 46.1216 20.9953C46.1216 20.9953 47.2421 20.7941 47.3311 21.7729C47.6478 22.3765 47.8804 22.8857 47.1907 23.4748C46.501 24.0639 39.1636 29.595 33.8552 22.8326C32.2135 20.1245 26.5087 20.97 27.433 26.0074C28.9058 30.4549 29.7271 32.2361 29.7271 32.2361C29.9554 32.7152 30.0822 33.2364 30.0993 33.7669C30.1165 34.2973 30.0237 34.8256 29.8268 35.3185C29.6299 35.8113 29.3331 36.2581 28.9552 36.6308C28.5773 37.0034 28.1263 37.2938 27.6307 37.4837C27.168 37.6392 26.6792 37.7014 26.1923 37.6669C25.7054 37.6324 25.2302 37.5018 24.794 37.2827C24.3579 37.0636 23.9695 36.7602 23.6512 36.3902C23.3328 36.0202 23.0909 35.5908 22.9394 35.1268C22.5877 34.0056 20.0606 27.343 20.0606 27.343C19.6533 26.5031 18.9403 25.8506 18.0676 25.5191C17.195 25.1877 16.2287 25.2022 15.3664 25.5598C13.8776 26.0602 12.5323 27.9158 13.413 30.4319C14.7563 34.4743 15.5809 36.9337 15.5809 36.9337C15.8621 37.8349 15.7942 38.8088 15.3908 39.6623C14.9874 40.5158 14.2779 41.1865 13.4031 41.5412C12.9528 41.7286 12.4689 41.8221 11.9812 41.8159C11.4935 41.8097 11.0122 41.7041 10.5667 41.5054C10.1213 41.3068 9.72103 41.0193 9.39056 40.6605C9.06008 40.3018 8.80631 39.8794 8.64478 39.4191C8.17189 38.081 4.26243 26.3401 4.26243 26.3401" fill="#293244"/>
<path d="M30.2928 14.8099C30.3738 15.0474 30.5233 15.2556 30.7225 15.4082C30.9216 15.5608 31.1615 15.651 31.4119 15.6674C31.6623 15.6838 31.9119 15.6257 32.1293 15.5004C32.3467 15.3751 32.5221 15.1882 32.6333 14.9633C32.7446 14.7384 32.7867 14.4856 32.7545 14.2367C32.7222 13.9879 32.6169 13.7542 32.452 13.5651C32.287 13.3761 32.0698 13.2401 31.8276 13.1744C31.5855 13.1086 31.3293 13.1161 31.0914 13.1958C30.7724 13.3054 30.5096 13.5364 30.3601 13.8386C30.2105 14.1409 30.1864 14.4899 30.2928 14.8099Z" fill="#293244"/>
<g clip-path="url(#clip1_13862_135)">
<path d="M60.7603 42V35.9088H64.6483V36.4963H61.4602V38.6131H64.4582V39.2093H61.4602V41.4038H64.6483V42H60.7603ZM65.8743 39.9178V39.3389H68.3367V39.9178H65.8743ZM71.7528 42.0778C71.3265 42.0778 70.955 41.9856 70.6382 41.8013C70.3272 41.617 70.0852 41.3549 69.9124 41.015C69.7454 40.6752 69.6619 40.272 69.6619 39.8054C69.6619 39.3331 69.7483 38.9328 69.9211 38.6045C70.0939 38.2704 70.3358 38.017 70.6468 37.8442C70.9636 37.6714 71.3323 37.585 71.7528 37.585C72.0292 37.585 72.2971 37.6339 72.5563 37.7318C72.8212 37.8298 73.0401 37.968 73.2129 38.1466L72.9624 38.6477C72.7896 38.4806 72.5995 38.3568 72.3921 38.2762C72.1905 38.1955 71.9918 38.1552 71.796 38.1552C71.3467 38.1552 70.9982 38.2963 70.7505 38.5786C70.5028 38.8608 70.379 39.2726 70.379 39.8141C70.379 40.3498 70.5028 40.7645 70.7505 41.0582C70.9982 41.352 71.3467 41.4989 71.796 41.4989C71.986 41.4989 72.1819 41.4614 72.3835 41.3866C72.5908 41.3117 72.7838 41.1878 72.9624 41.015L73.2129 41.5075C73.0344 41.6918 72.8126 41.833 72.5476 41.9309C72.2827 42.0288 72.0177 42.0778 71.7528 42.0778ZM76.0758 42.0778C75.6611 42.0778 75.2982 41.9885 74.9872 41.8099C74.6819 41.6256 74.4457 41.3664 74.2787 41.0323C74.1116 40.6925 74.0281 40.2922 74.0281 39.8314C74.0281 39.3648 74.1116 38.9645 74.2787 38.6304C74.4457 38.2963 74.6819 38.04 74.9872 37.8614C75.2982 37.6771 75.6611 37.585 76.0758 37.585C76.4963 37.585 76.8592 37.6771 77.1644 37.8614C77.4755 38.04 77.7145 38.2963 77.8816 38.6304C78.0544 38.9645 78.1408 39.3648 78.1408 39.8314C78.1408 40.2922 78.0544 40.6925 77.8816 41.0323C77.7145 41.3664 77.4755 41.6256 77.1644 41.8099C76.8592 41.9885 76.4963 42.0778 76.0758 42.0778ZM76.0758 41.5075C76.4905 41.5075 76.8188 41.3664 77.0608 41.0842C77.3027 40.7962 77.4236 40.3786 77.4236 39.8314C77.4236 39.2784 77.2998 38.8608 77.0521 38.5786C76.8102 38.2906 76.4848 38.1466 76.0758 38.1466C75.6668 38.1466 75.3414 38.2906 75.0995 38.5786C74.8576 38.8608 74.7366 39.2784 74.7366 39.8314C74.7366 40.3786 74.8576 40.7962 75.0995 41.0842C75.3414 41.3664 75.6668 41.5075 76.0758 41.5075ZM79.4047 42V38.665C79.4047 38.5037 79.3961 38.3395 79.3788 38.1725C79.3673 37.9997 79.3529 37.8298 79.3356 37.6627H80.0095L80.0959 38.6131H79.9922C80.1074 38.2848 80.2889 38.0314 80.5365 37.8528C80.79 37.6742 81.0953 37.585 81.4524 37.585C81.8153 37.585 82.109 37.6714 82.3337 37.8442C82.5641 38.017 82.7196 38.2848 82.8002 38.6477H82.6706C82.7801 38.3194 82.973 38.0602 83.2495 37.8701C83.526 37.68 83.8485 37.585 84.2172 37.585C84.6953 37.585 85.0553 37.7232 85.2972 37.9997C85.5391 38.2704 85.6601 38.6995 85.6601 39.287V42H84.9602V39.3302C84.9602 38.9213 84.8882 38.6246 84.7442 38.4403C84.6002 38.2502 84.3698 38.1552 84.053 38.1552C83.6901 38.1552 83.4021 38.2819 83.189 38.5354C82.9817 38.783 82.878 39.1171 82.878 39.5376V42H82.1781V39.3302C82.1781 38.9213 82.1061 38.6246 81.9621 38.4403C81.8181 38.2502 81.5877 38.1552 81.2709 38.1552C80.9081 38.1552 80.6229 38.2819 80.4156 38.5354C80.2082 38.783 80.1045 39.1171 80.1045 39.5376V42H79.4047ZM87.1628 42V38.665C87.1628 38.5037 87.1542 38.3395 87.1369 38.1725C87.1254 37.9997 87.111 37.8298 87.0937 37.6627H87.7676L87.854 38.6131H87.7503C87.8655 38.2848 88.047 38.0314 88.2947 37.8528C88.5481 37.6742 88.8534 37.585 89.2105 37.585C89.5734 37.585 89.8671 37.6714 90.0918 37.8442C90.3222 38.017 90.4777 38.2848 90.5583 38.6477H90.4287C90.5382 38.3194 90.7311 38.0602 91.0076 37.8701C91.2841 37.68 91.6067 37.585 91.9753 37.585C92.4534 37.585 92.8134 37.7232 93.0553 37.9997C93.2972 38.2704 93.4182 38.6995 93.4182 39.287V42H92.7183V39.3302C92.7183 38.9213 92.6463 38.6246 92.5023 38.4403C92.3583 38.2502 92.1279 38.1552 91.8111 38.1552C91.4483 38.1552 91.1603 38.2819 90.9471 38.5354C90.7398 38.783 90.6361 39.1171 90.6361 39.5376V42H89.9363V39.3302C89.9363 38.9213 89.8643 38.6246 89.7203 38.4403C89.5763 38.2502 89.3459 38.1552 89.0291 38.1552C88.6662 38.1552 88.3811 38.2819 88.1737 38.5354C87.9663 38.783 87.8627 39.1171 87.8627 39.5376V42H87.1628ZM96.8476 42.0778C96.168 42.0778 95.6323 41.8819 95.2406 41.4902C94.8489 41.0928 94.6531 40.5427 94.6531 39.84C94.6531 39.385 94.7395 38.9904 94.9123 38.6563C95.0851 38.3165 95.327 38.0544 95.638 37.8701C95.9491 37.68 96.3062 37.585 96.7094 37.585C97.1068 37.585 97.4409 37.6685 97.7116 37.8355C97.9824 38.0026 98.1897 38.2416 98.3337 38.5526C98.4777 38.8579 98.5497 39.2208 98.5497 39.6413V39.9005H95.1888V39.4598H98.0918L97.9449 39.5722C97.9449 39.1114 97.8412 38.7514 97.6339 38.4922C97.4265 38.233 97.1184 38.1034 96.7094 38.1034C96.2774 38.1034 95.9404 38.256 95.6985 38.5613C95.4566 38.8608 95.3356 39.2669 95.3356 39.7795V39.8573C95.3356 40.3987 95.4681 40.8106 95.7331 41.0928C96.0038 41.3693 96.3811 41.5075 96.8649 41.5075C97.1241 41.5075 97.366 41.4701 97.5907 41.3952C97.8211 41.3146 98.04 41.185 98.2473 41.0064L98.4892 41.4989C98.2992 41.6832 98.0572 41.8272 97.7635 41.9309C97.4755 42.0288 97.1702 42.0778 96.8476 42.0778ZM99.7761 42V38.7082C99.7761 38.5354 99.7704 38.3597 99.7589 38.1811C99.7531 38.0026 99.7416 37.8298 99.7243 37.6627H100.398L100.485 38.7168L100.364 38.7254C100.421 38.4662 100.522 38.2531 100.666 38.0861C100.81 37.919 100.98 37.7952 101.176 37.7146C101.372 37.6282 101.576 37.585 101.789 37.585C101.876 37.585 101.951 37.5878 102.014 37.5936C102.083 37.5994 102.146 37.6138 102.204 37.6368L102.195 38.2589C102.109 38.2301 102.028 38.2128 101.953 38.207C101.884 38.1955 101.804 38.1898 101.711 38.1898C101.458 38.1898 101.236 38.2502 101.046 38.3712C100.862 38.4922 100.721 38.6477 100.623 38.8378C100.531 39.0278 100.485 39.2294 100.485 39.4426V42H99.7761ZM104.877 42.0778C104.451 42.0778 104.08 41.9856 103.763 41.8013C103.452 41.617 103.21 41.3549 103.037 41.015C102.87 40.6752 102.786 40.272 102.786 39.8054C102.786 39.3331 102.873 38.9328 103.046 38.6045C103.218 38.2704 103.46 38.017 103.771 37.8442C104.088 37.6714 104.457 37.585 104.877 37.585C105.154 37.585 105.422 37.6339 105.681 37.7318C105.946 37.8298 106.165 37.968 106.338 38.1466L106.087 38.6477C105.914 38.4806 105.724 38.3568 105.517 38.2762C105.315 38.1955 105.116 38.1552 104.921 38.1552C104.471 38.1552 104.123 38.2963 103.875 38.5786C103.627 38.8608 103.504 39.2726 103.504 39.8141C103.504 40.3498 103.627 40.7645 103.875 41.0582C104.123 41.352 104.471 41.4989 104.921 41.4989C105.111 41.4989 105.306 41.4614 105.508 41.3866C105.715 41.3117 105.908 41.1878 106.087 41.015L106.338 41.5075C106.159 41.6918 105.937 41.833 105.672 41.9309C105.407 42.0288 105.142 42.0778 104.877 42.0778ZM109.347 42.0778C108.668 42.0778 108.132 41.8819 107.74 41.4902C107.349 41.0928 107.153 40.5427 107.153 39.84C107.153 39.385 107.239 38.9904 107.412 38.6563C107.585 38.3165 107.827 38.0544 108.138 37.8701C108.449 37.68 108.806 37.585 109.209 37.585C109.606 37.585 109.941 37.6685 110.211 37.8355C110.482 38.0026 110.689 38.2416 110.833 38.5526C110.977 38.8579 111.049 39.2208 111.049 39.6413V39.9005H107.688V39.4598H110.591L110.445 39.5722C110.445 39.1114 110.341 38.7514 110.134 38.4922C109.926 38.233 109.618 38.1034 109.209 38.1034C108.777 38.1034 108.44 38.256 108.198 38.5613C107.956 38.8608 107.835 39.2669 107.835 39.7795V39.8573C107.835 40.3987 107.968 40.8106 108.233 41.0928C108.503 41.3693 108.881 41.5075 109.365 41.5075C109.624 41.5075 109.866 41.4701 110.09 41.3952C110.321 41.3146 110.54 41.185 110.747 41.0064L110.989 41.4989C110.799 41.6832 110.557 41.8272 110.263 41.9309C109.975 42.0288 109.67 42.0778 109.347 42.0778ZM116.162 42.0778C115.816 42.0778 115.493 42.0317 115.194 41.9395C114.894 41.8416 114.647 41.7062 114.451 41.5334L114.693 41.041C114.906 41.208 115.136 41.3318 115.384 41.4125C115.637 41.4931 115.899 41.5334 116.17 41.5334C116.516 41.5334 116.775 41.473 116.948 41.352C117.126 41.2253 117.216 41.0525 117.216 40.8336C117.216 40.6666 117.158 40.5341 117.043 40.4362C116.933 40.3325 116.752 40.2518 116.499 40.1942L115.695 40.0301C115.326 39.9494 115.05 39.8141 114.866 39.624C114.681 39.4282 114.589 39.1805 114.589 38.881C114.589 38.6275 114.655 38.4058 114.788 38.2157C114.92 38.0198 115.113 37.8672 115.367 37.7578C115.62 37.6426 115.917 37.585 116.257 37.585C116.573 37.585 116.864 37.6339 117.129 37.7318C117.4 37.824 117.625 37.9594 117.803 38.1379L117.553 38.6218C117.38 38.4547 117.181 38.3309 116.956 38.2502C116.738 38.1638 116.51 38.1206 116.274 38.1206C115.934 38.1206 115.678 38.1898 115.505 38.328C115.338 38.4605 115.254 38.6362 115.254 38.855C115.254 39.0221 115.306 39.1603 115.41 39.2698C115.519 39.3734 115.686 39.4512 115.911 39.503L116.715 39.6672C117.106 39.7536 117.397 39.889 117.587 40.0733C117.783 40.2518 117.881 40.4938 117.881 40.799C117.881 41.0582 117.809 41.2858 117.665 41.4816C117.521 41.6717 117.319 41.8186 117.06 41.9222C116.807 42.0259 116.507 42.0778 116.162 42.0778ZM120.958 42.0778C120.543 42.0778 120.18 41.9885 119.869 41.8099C119.564 41.6256 119.327 41.3664 119.16 41.0323C118.993 40.6925 118.91 40.2922 118.91 39.8314C118.91 39.3648 118.993 38.9645 119.16 38.6304C119.327 38.2963 119.564 38.04 119.869 37.8614C120.18 37.6771 120.543 37.585 120.958 37.585C121.378 37.585 121.741 37.6771 122.046 37.8614C122.357 38.04 122.596 38.2963 122.763 38.6304C122.936 38.9645 123.023 39.3648 123.023 39.8314C123.023 40.2922 122.936 40.6925 122.763 41.0323C122.596 41.3664 122.357 41.6256 122.046 41.8099C121.741 41.9885 121.378 42.0778 120.958 42.0778ZM120.958 41.5075C121.372 41.5075 121.701 41.3664 121.943 41.0842C122.184 40.7962 122.305 40.3786 122.305 39.8314C122.305 39.2784 122.182 38.8608 121.934 38.5786C121.692 38.2906 121.367 38.1466 120.958 38.1466C120.549 38.1466 120.223 38.2906 119.981 38.5786C119.739 38.8608 119.618 39.2784 119.618 39.8314C119.618 40.3786 119.739 40.7962 119.981 41.0842C120.223 41.3664 120.549 41.5075 120.958 41.5075ZM124.286 42V35.641H124.986V42H124.286ZM128.047 42.0778C127.535 42.0778 127.146 41.9366 126.881 41.6544C126.622 41.3722 126.492 40.9402 126.492 40.3584V37.6627H127.192V40.3411C127.192 40.7386 127.273 41.0323 127.434 41.2224C127.595 41.4067 127.846 41.4989 128.186 41.4989C128.566 41.4989 128.871 41.375 129.101 41.1274C129.332 40.8797 129.447 40.5485 129.447 40.1338V37.6627H130.147V42H129.464V41.0237H129.577C129.456 41.3578 129.26 41.617 128.989 41.8013C128.724 41.9856 128.41 42.0778 128.047 42.0778ZM133.215 42.0778C132.789 42.0778 132.464 41.9568 132.239 41.7149C132.014 41.4672 131.902 41.0957 131.902 40.6003V38.207H131.055V37.6627H131.902V36.479L132.602 36.2803V37.6627H133.846V38.207H132.602V40.5226C132.602 40.8682 132.659 41.1158 132.775 41.2656C132.896 41.4096 133.074 41.4816 133.31 41.4816C133.42 41.4816 133.518 41.473 133.604 41.4557C133.69 41.4326 133.768 41.4067 133.837 41.3779V41.9654C133.757 42 133.659 42.0259 133.544 42.0432C133.434 42.0662 133.325 42.0778 133.215 42.0778ZM134.871 42V37.6627H135.571V42H134.871ZM134.784 36.6778V35.8915H135.648V36.6778H134.784ZM138.882 42.0778C138.467 42.0778 138.105 41.9885 137.794 41.8099C137.488 41.6256 137.252 41.3664 137.085 41.0323C136.918 40.6925 136.835 40.2922 136.835 39.8314C136.835 39.3648 136.918 38.9645 137.085 38.6304C137.252 38.2963 137.488 38.04 137.794 37.8614C138.105 37.6771 138.467 37.585 138.882 37.585C139.303 37.585 139.666 37.6771 139.971 37.8614C140.282 38.04 140.521 38.2963 140.688 38.6304C140.861 38.9645 140.947 39.3648 140.947 39.8314C140.947 40.2922 140.861 40.6925 140.688 41.0323C140.521 41.3664 140.282 41.6256 139.971 41.8099C139.666 41.9885 139.303 42.0778 138.882 42.0778ZM138.882 41.5075C139.297 41.5075 139.625 41.3664 139.867 41.0842C140.109 40.7962 140.23 40.3786 140.23 39.8314C140.23 39.2784 140.106 38.8608 139.859 38.5786C139.617 38.2906 139.291 38.1466 138.882 38.1466C138.473 38.1466 138.148 38.2906 137.906 38.5786C137.664 38.8608 137.543 39.2784 137.543 39.8314C137.543 40.3786 137.664 40.7962 137.906 41.0842C138.148 41.3664 138.473 41.5075 138.882 41.5075ZM142.211 42V38.665C142.211 38.5037 142.202 38.3395 142.185 38.1725C142.174 37.9997 142.159 37.8298 142.142 37.6627H142.816L142.902 38.6131H142.799C142.925 38.279 143.127 38.0256 143.403 37.8528C143.686 37.6742 144.011 37.585 144.38 37.585C144.892 37.585 145.278 37.7232 145.537 37.9997C145.802 38.2704 145.935 38.6995 145.935 39.287V42H145.235V39.3302C145.235 38.9213 145.152 38.6246 144.985 38.4403C144.823 38.2502 144.57 38.1552 144.224 38.1552C143.821 38.1552 143.501 38.279 143.265 38.5267C143.029 38.7744 142.911 39.1056 142.911 39.5203V42H142.211ZM148.889 42.0778C148.544 42.0778 148.221 42.0317 147.922 41.9395C147.622 41.8416 147.374 41.7062 147.179 41.5334L147.42 41.041C147.634 41.208 147.864 41.3318 148.112 41.4125C148.365 41.4931 148.627 41.5334 148.898 41.5334C149.244 41.5334 149.503 41.473 149.676 41.352C149.854 41.2253 149.943 41.0525 149.943 40.8336C149.943 40.6666 149.886 40.5341 149.771 40.4362C149.661 40.3325 149.48 40.2518 149.226 40.1942L148.423 40.0301C148.054 39.9494 147.778 39.8141 147.593 39.624C147.409 39.4282 147.317 39.1805 147.317 38.881C147.317 38.6275 147.383 38.4058 147.516 38.2157C147.648 38.0198 147.841 37.8672 148.094 37.7578C148.348 37.6426 148.644 37.585 148.984 37.585C149.301 37.585 149.592 37.6339 149.857 37.7318C150.128 37.824 150.352 37.9594 150.531 38.1379L150.28 38.6218C150.108 38.4547 149.909 38.3309 149.684 38.2502C149.465 38.1638 149.238 38.1206 149.002 38.1206C148.662 38.1206 148.405 38.1898 148.233 38.328C148.066 38.4605 147.982 38.6362 147.982 38.855C147.982 39.0221 148.034 39.1603 148.138 39.2698C148.247 39.3734 148.414 39.4512 148.639 39.503L149.442 39.6672C149.834 39.7536 150.125 39.889 150.315 40.0733C150.511 40.2518 150.609 40.4938 150.609 40.799C150.609 41.0582 150.537 41.2858 150.393 41.4816C150.249 41.6717 150.047 41.8186 149.788 41.9222C149.534 42.0259 149.235 42.0778 148.889 42.0778ZM154.158 43.9613L153.994 43.3824C154.265 43.319 154.489 43.2442 154.668 43.1578C154.852 43.0771 155.005 42.9677 155.126 42.8294C155.247 42.6912 155.351 42.5184 155.437 42.311L155.662 41.8013L155.644 42.095L153.752 37.6627H154.512L156.076 41.473H155.852L157.398 37.6627H158.133L156.128 42.3629C156.013 42.6394 155.886 42.8698 155.748 43.0541C155.61 43.2442 155.46 43.3968 155.299 43.512C155.143 43.633 154.97 43.728 154.78 43.7971C154.59 43.8662 154.383 43.921 154.158 43.9613ZM160.815 42.0778C160.4 42.0778 160.037 41.9885 159.726 41.8099C159.421 41.6256 159.185 41.3664 159.018 41.0323C158.85 40.6925 158.767 40.2922 158.767 39.8314C158.767 39.3648 158.85 38.9645 159.018 38.6304C159.185 38.2963 159.421 38.04 159.726 37.8614C160.037 37.6771 160.4 37.585 160.815 37.585C161.235 37.585 161.598 37.6771 161.903 37.8614C162.214 38.04 162.453 38.2963 162.62 38.6304C162.793 38.9645 162.88 39.3648 162.88 39.8314C162.88 40.2922 162.793 40.6925 162.62 41.0323C162.453 41.3664 162.214 41.6256 161.903 41.8099C161.598 41.9885 161.235 42.0778 160.815 42.0778ZM160.815 41.5075C161.229 41.5075 161.558 41.3664 161.8 41.0842C162.042 40.7962 162.162 40.3786 162.162 39.8314C162.162 39.2784 162.039 38.8608 161.791 38.5786C161.549 38.2906 161.224 38.1466 160.815 38.1466C160.406 38.1466 160.08 38.2906 159.838 38.5786C159.596 38.8608 159.475 39.2784 159.475 39.8314C159.475 40.3786 159.596 40.7962 159.838 41.0842C160.08 41.3664 160.406 41.5075 160.815 41.5075ZM165.673 42.0778C165.16 42.0778 164.771 41.9366 164.506 41.6544C164.247 41.3722 164.118 40.9402 164.118 40.3584V37.6627H164.817V40.3411C164.817 40.7386 164.898 41.0323 165.059 41.2224C165.221 41.4067 165.471 41.4989 165.811 41.4989C166.191 41.4989 166.496 41.375 166.727 41.1274C166.957 40.8797 167.072 40.5485 167.072 40.1338V37.6627H167.772V42H167.09V41.0237H167.202C167.081 41.3578 166.885 41.617 166.615 41.8013C166.35 41.9856 166.036 42.0778 165.673 42.0778ZM173.552 42.0778C173.125 42.0778 172.754 41.9856 172.437 41.8013C172.126 41.617 171.884 41.3549 171.711 41.015C171.544 40.6752 171.461 40.272 171.461 39.8054C171.461 39.3331 171.547 38.9328 171.72 38.6045C171.893 38.2704 172.135 38.017 172.446 37.8442C172.762 37.6714 173.131 37.585 173.552 37.585C173.828 37.585 174.096 37.6339 174.355 37.7318C174.62 37.8298 174.839 37.968 175.012 38.1466L174.761 38.6477C174.588 38.4806 174.398 38.3568 174.191 38.2762C173.989 38.1955 173.791 38.1552 173.595 38.1552C173.145 38.1552 172.797 38.2963 172.549 38.5786C172.302 38.8608 172.178 39.2726 172.178 39.8141C172.178 40.3498 172.302 40.7645 172.549 41.0582C172.797 41.352 173.145 41.4989 173.595 41.4989C173.785 41.4989 173.981 41.4614 174.182 41.3866C174.39 41.3117 174.583 41.1878 174.761 41.015L175.012 41.5075C174.833 41.6918 174.611 41.833 174.346 41.9309C174.081 42.0288 173.817 42.0778 173.552 42.0778ZM177.796 42.0778C177.41 42.0778 177.073 41.9885 176.785 41.8099C176.497 41.6256 176.272 41.3664 176.111 41.0323C175.955 40.6982 175.878 40.2979 175.878 39.8314C175.878 39.359 175.955 38.9558 176.111 38.6218C176.272 38.2877 176.497 38.0314 176.785 37.8528C177.073 37.6742 177.41 37.585 177.796 37.585C178.187 37.585 178.524 37.6858 178.806 37.8874C179.094 38.0832 179.285 38.351 179.377 38.6909H179.273L179.368 37.6627H180.042C180.025 37.8298 180.007 37.9997 179.99 38.1725C179.979 38.3395 179.973 38.5037 179.973 38.665V42H179.273V40.9805H179.368C179.276 41.3203 179.086 41.5882 178.798 41.784C178.51 41.9798 178.176 42.0778 177.796 42.0778ZM177.934 41.5075C178.349 41.5075 178.677 41.3664 178.919 41.0842C179.161 40.7962 179.282 40.3786 179.282 39.8314C179.282 39.2784 179.161 38.8608 178.919 38.5786C178.677 38.2906 178.349 38.1466 177.934 38.1466C177.525 38.1466 177.197 38.2906 176.949 38.5786C176.707 38.8608 176.586 39.2784 176.586 39.8314C176.586 40.3786 176.707 40.7962 176.949 41.0842C177.197 41.3664 177.525 41.5075 177.934 41.5075ZM181.499 42V38.665C181.499 38.5037 181.49 38.3395 181.473 38.1725C181.461 37.9997 181.447 37.8298 181.43 37.6627H182.104L182.19 38.6131H182.086C182.213 38.279 182.415 38.0256 182.691 37.8528C182.973 37.6742 183.299 37.585 183.667 37.585C184.18 37.585 184.566 37.7232 184.825 37.9997C185.09 38.2704 185.223 38.6995 185.223 39.287V42H184.523V39.3302C184.523 38.9213 184.439 38.6246 184.272 38.4403C184.111 38.2502 183.858 38.1552 183.512 38.1552C183.109 38.1552 182.789 38.279 182.553 38.5267C182.317 38.7744 182.199 39.1056 182.199 39.5203V42H181.499ZM190.698 42.0778C190.271 42.0778 189.946 41.9568 189.721 41.7149C189.497 41.4672 189.384 41.0957 189.384 40.6003V38.207H188.538V37.6627H189.384V36.479L190.084 36.2803V37.6627H191.328V38.207H190.084V40.5226C190.084 40.8682 190.142 41.1158 190.257 41.2656C190.378 41.4096 190.557 41.4816 190.793 41.4816C190.902 41.4816 191 41.473 191.086 41.4557C191.173 41.4326 191.251 41.4067 191.32 41.3779V41.9654C191.239 42 191.141 42.0259 191.026 42.0432C190.917 42.0662 190.807 42.0778 190.698 42.0778ZM192.336 42V38.7082C192.336 38.5354 192.33 38.3597 192.319 38.1811C192.313 38.0026 192.301 37.8298 192.284 37.6627H192.958L193.044 38.7168L192.923 38.7254C192.981 38.4662 193.082 38.2531 193.226 38.0861C193.37 37.919 193.54 37.7952 193.736 37.7146C193.931 37.6282 194.136 37.585 194.349 37.585C194.435 37.585 194.51 37.5878 194.574 37.5936C194.643 37.5994 194.706 37.6138 194.764 37.6368L194.755 38.2589C194.669 38.2301 194.588 38.2128 194.513 38.207C194.444 38.1955 194.363 38.1898 194.271 38.1898C194.018 38.1898 193.796 38.2502 193.606 38.3712C193.422 38.4922 193.28 38.6477 193.183 38.8378C193.09 39.0278 193.044 39.2294 193.044 39.4426V42H192.336ZM197.194 42.0778C196.681 42.0778 196.293 41.9366 196.028 41.6544C195.768 41.3722 195.639 40.9402 195.639 40.3584V37.6627H196.339V40.3411C196.339 40.7386 196.419 41.0323 196.581 41.2224C196.742 41.4067 196.992 41.4989 197.332 41.4989C197.712 41.4989 198.018 41.375 198.248 41.1274C198.478 40.8797 198.594 40.5485 198.594 40.1338V37.6627H199.293V42H198.611V41.0237H198.723C198.602 41.3578 198.406 41.617 198.136 41.8013C197.871 41.9856 197.557 42.0778 197.194 42.0778ZM202.267 42.0778C201.921 42.0778 201.599 42.0317 201.299 41.9395C201 41.8416 200.752 41.7062 200.556 41.5334L200.798 41.041C201.011 41.208 201.242 41.3318 201.489 41.4125C201.743 41.4931 202.005 41.5334 202.276 41.5334C202.621 41.5334 202.88 41.473 203.053 41.352C203.232 41.2253 203.321 41.0525 203.321 40.8336C203.321 40.6666 203.263 40.5341 203.148 40.4362C203.039 40.3325 202.857 40.2518 202.604 40.1942L201.8 40.0301C201.432 39.9494 201.155 39.8141 200.971 39.624C200.787 39.4282 200.694 39.1805 200.694 38.881C200.694 38.6275 200.761 38.4058 200.893 38.2157C201.026 38.0198 201.219 37.8672 201.472 37.7578C201.725 37.6426 202.022 37.585 202.362 37.585C202.679 37.585 202.97 37.6339 203.235 37.7318C203.505 37.824 203.73 37.9594 203.909 38.1379L203.658 38.6218C203.485 38.4547 203.286 38.3309 203.062 38.2502C202.843 38.1638 202.615 38.1206 202.379 38.1206C202.039 38.1206 201.783 38.1898 201.61 38.328C201.443 38.4605 201.36 38.6362 201.36 38.855C201.36 39.0221 201.412 39.1603 201.515 39.2698C201.625 39.3734 201.792 39.4512 202.016 39.503L202.82 39.6672C203.212 39.7536 203.502 39.889 203.693 40.0733C203.888 40.2518 203.986 40.4938 203.986 40.799C203.986 41.0582 203.914 41.2858 203.77 41.4816C203.626 41.6717 203.425 41.8186 203.165 41.9222C202.912 42.0259 202.613 42.0778 202.267 42.0778ZM206.779 42.0778C206.353 42.0778 206.027 41.9568 205.803 41.7149C205.578 41.4672 205.466 41.0957 205.466 40.6003V38.207H204.619V37.6627H205.466V36.479L206.165 36.2803V37.6627H207.41V38.207H206.165V40.5226C206.165 40.8682 206.223 41.1158 206.338 41.2656C206.459 41.4096 206.638 41.4816 206.874 41.4816C206.983 41.4816 207.081 41.473 207.168 41.4557C207.254 41.4326 207.332 41.4067 207.401 41.3779V41.9654C207.32 42 207.222 42.0259 207.107 42.0432C206.998 42.0662 206.888 42.0778 206.779 42.0778Z" fill="black"/>
<path d="M82.085 23.5H78.953V6.68L72.95 23.5H69.586L63.467 6.767V23.5H60.335V3.316H65.497L71.326 19.208L77.01 3.316H82.085V23.5ZM101.297 18.512H92.0456L90.1896 23.5H87.0576L94.7716 3.316H98.7156L106.43 23.5H103.153L101.297 18.512ZM100.282 15.844L96.6856 6.216L93.0606 15.844H100.282ZM109.538 13.466C109.538 11.3393 109.925 9.493 110.698 7.927C111.472 6.34167 112.603 5.12367 114.091 4.273C115.58 3.403 117.368 2.968 119.456 2.968C121.66 2.968 123.681 3.47067 125.517 4.476L125.488 7.666H125.372C124.657 7.12467 123.787 6.68967 122.762 6.361C121.757 6.013 120.684 5.839 119.543 5.839C117.339 5.839 115.677 6.49633 114.555 7.811C113.434 9.12567 112.873 11.001 112.873 13.437C112.873 15.815 113.405 17.671 114.468 19.005C115.551 20.3197 117.146 20.977 119.253 20.977C120.065 20.977 120.819 20.8803 121.515 20.687C122.231 20.4743 122.84 20.165 123.342 19.759V16.018H119.282V13.35H126.474V21.412C125.121 22.2627 123.893 22.8813 122.791 23.268C121.689 23.6547 120.491 23.848 119.195 23.848C117.146 23.848 115.396 23.4227 113.946 22.572C112.496 21.702 111.394 20.4937 110.64 18.947C109.906 17.381 109.538 15.554 109.538 13.466ZM136.574 6.187V11.958H145.361V14.655H136.574V20.629H145.999V23.5H133.442V3.316H145.999V6.187H136.574Z" fill="#293244"/>
<path d="M155.467 6.187V12.277H162.862V15.003H155.467V23.5H152.335V3.316H164.776V6.187H155.467ZM180.524 18.512H171.273L169.417 23.5H166.285L173.999 3.316H177.943L185.657 23.5H182.38L180.524 18.512ZM179.509 15.844L175.913 6.216L172.288 15.844H179.509ZM207.153 3.316V23.5H204.021L193.755 8.942V23.5H190.623V3.316H193.755L204.021 17.845V3.316H207.153Z" fill="#4B6289"/>
</g>
</g>
<defs>
<clipPath id="clip0_13862_135">
<rect width="210" height="45" fill="white"/>
</clipPath>
<clipPath id="clip1_13862_135">
<rect width="150" height="45" fill="white" transform="translate(59)"/>
</clipPath>
</defs>
</svg>
