<svg id="logo" width="210" height="45" viewBox="0 0 214.83 44.46" fill="none" xmlns="http://www.w3.org/2000/svg">
    <path id="M" class="cls-3" d="M69.14,5.21l0-.13h-4V26.92h3.25V18.37h0l-.25-7.79,6.58,16.22.06.13h2.44l0-.13,6.6-16.27-.23,7.84h0v8.55h3.25V5.08h-4l0,.13L76,22.21Z" transform="translate(-2.73 -3.3)" fill="#141414"></path>
    <path id="A" class="cls-3" d="M95,26.92h.15l0-.13,2-5.46h8.68l2,5.46,0,.13h3.35l-.11-.28L103,5.21l0-.13h-2.76l-.05.13L91.91,26.64l-.1.28H95Zm3.17-8.33,3.34-9.2,3.35,9.2Z" transform="translate(-2.73 -3.3)" fill="#141414"></path>
    <path id="G" class="cls-3" d="M133.62,24l0-.05V15.83h-8.19v2.72h5v4.52a4,4,0,0,1-1.82,1.07,9.56,9.56,0,0,1-2.72.35,5.15,5.15,0,0,1-4.3-2,9,9,0,0,1-1.6-5.61V15.09a9.52,9.52,0,0,1,1.43-5.65,4.79,4.79,0,0,1,4.14-1.91,4.92,4.92,0,0,1,3.27,1,5.09,5.09,0,0,1,1.59,3.07l0,.17h3.24l0-.24a7.67,7.67,0,0,0-2.58-5,8.34,8.34,0,0,0-5.53-1.77A8.11,8.11,0,0,0,119,7.52h0c-1.54,1.83-2.3,4.38-2.3,7.64V17h0a12.42,12.42,0,0,0,1.15,5.35h0A8.53,8.53,0,0,0,121.11,26h0a9.12,9.12,0,0,0,4.76,1.25,12.54,12.54,0,0,0,4.61-.78h0A6.79,6.79,0,0,0,133.62,24Z" transform="translate(-2.73 -3.3)" fill="#141414"></path>
    <path id="E" class="cls-3" d="M153.6,17h.21V14.29h-9.28V7.82h10.64V5.08H141.28V26.92h14V24.19H144.53V17Z" transform="translate(-2.73 -3.3)" fill="#141414"></path>
    <path id="F" class="cls-3" d="M173,17.46h.21V14.73h-9V7.82h10.45V5.08H161V26.92h3.24V17.46Z" transform="translate(-2.73 -3.3)" fill="#4b6289"></path>
    <path id="AA" class="cls-3" d="M179.17,26.92h.15l.05-.13,2-5.46H190l2,5.46.05.13h3.35l-.11-.28L187.1,5.21l0-.13h-2.76l0,.13-8.18,21.43-.11.28h3.22Zm3.17-8.33,3.33-9.2,3.35,9.2Z" transform="translate(-2.73 -3.3)" fill="#4b6289"></path>
    <path id="N" class="cls-3" d="M217.82,26.92H218V5.08H214.8V21.17l-10.43-16-.06-.09h-3.17V26.92h3.26v-16l10.41,15.93.06.09h2.95Z" transform="translate(-2.73 -3.3)" fill="#4b6289"></path>
    <path d="M68.78,42.23H66.09v2.5h3v.76H65.18v-7h3.76v.76H66.09v2.19h2.69Z" transform="translate(-2.73 -3.3)" fill="#141414"></path>
    <path d="M72.34,42.37V43H69.79v-.66Z" transform="translate(-2.73 -3.3)" fill="#141414"></path>
    <path d="M77.14,45.31a3.51,3.51,0,0,1-1.43.29,2.37,2.37,0,0,1-2.49-2.55,2.55,2.55,0,0,1,2.69-2.66,2.73,2.73,0,0,1,1.25.27l-.2.69a2.28,2.28,0,0,0-1-.24A1.74,1.74,0,0,0,74.14,43a1.72,1.72,0,0,0,1.73,1.87A2.67,2.67,0,0,0,77,44.63Z" transform="translate(-2.73 -3.3)" fill="#141414"></path>
    <path d="M82.66,43a2.45,2.45,0,0,1-2.48,2.65A2.38,2.38,0,0,1,77.78,43a2.44,2.44,0,0,1,2.48-2.64A2.36,2.36,0,0,1,82.66,43Zm-4,0c0,1.09.62,1.92,1.51,1.92s1.51-.82,1.51-1.94c0-.85-.42-1.91-1.49-1.91S78.71,42.06,78.71,43Z" transform="translate(-2.73 -3.3)" fill="#141414"></path>
    <path d="M83.81,41.84c0-.52,0-.94,0-1.35h.79l0,.82h0a1.72,1.72,0,0,1,1.58-.92,1.46,1.46,0,0,1,1.4,1h0a2,2,0,0,1,.57-.65,1.66,1.66,0,0,1,1.09-.35c.67,0,1.65.43,1.65,2.17v2.93h-.88V42.67c0-1-.36-1.54-1.09-1.54a1.2,1.2,0,0,0-1.08.82,1.57,1.57,0,0,0-.07.45v3.09h-.89v-3c0-.79-.35-1.36-1-1.36a1.25,1.25,0,0,0-1.12.91,1,1,0,0,0-.08.44v3h-.88Z" transform="translate(-2.73 -3.3)" fill="#141414"></path>
    <path d="M92.41,41.84c0-.52,0-.94,0-1.35h.79l0,.82h0a1.73,1.73,0,0,1,1.58-.92,1.48,1.48,0,0,1,1.41,1h0a2,2,0,0,1,.56-.65,1.67,1.67,0,0,1,1.1-.35c.67,0,1.65.43,1.65,2.17v2.93h-.89V42.67c0-1-.36-1.54-1.08-1.54a1.2,1.2,0,0,0-1.09.82,1.57,1.57,0,0,0-.07.45v3.09h-.89v-3c0-.79-.35-1.36-1-1.36a1.26,1.26,0,0,0-1.12.91,1.23,1.23,0,0,0-.07.44v3h-.89Z" transform="translate(-2.73 -3.3)" fill="#141414"></path>
    <path d="M101.52,43.15a1.6,1.6,0,0,0,1.71,1.74,3.3,3.3,0,0,0,1.38-.26l.17.65a4.15,4.15,0,0,1-1.67.32,2.33,2.33,0,0,1-2.46-2.53A2.42,2.42,0,0,1,103,40.39a2.1,2.1,0,0,1,2.07,2.34,2,2,0,0,1,0,.42Zm2.66-.65A1.29,1.29,0,0,0,102.92,41a1.48,1.48,0,0,0-1.39,1.46Z" transform="translate(-2.73 -3.3)" fill="#141414"></path>
    <path d="M106.18,42.05c0-.59,0-1.09,0-1.56h.79l0,1h0a1.52,1.52,0,0,1,1.4-1.09l.25,0v.86a1.51,1.51,0,0,0-.31,0,1.26,1.26,0,0,0-1.22,1.15,2.86,2.86,0,0,0,0,.42v2.67h-.91Z" transform="translate(-2.73 -3.3)" fill="#141414"></path>
    <path d="M113,45.31a3.57,3.57,0,0,1-1.44.29,2.37,2.37,0,0,1-2.48-2.55,2.54,2.54,0,0,1,2.68-2.66,2.78,2.78,0,0,1,1.26.27l-.21.69a2.21,2.21,0,0,0-1-.24A1.74,1.74,0,0,0,110,43a1.72,1.72,0,0,0,1.73,1.87,2.58,2.58,0,0,0,1.11-.24Z" transform="translate(-2.73 -3.3)" fill="#141414"></path>
    <path d="M114.51,43.15a1.61,1.61,0,0,0,1.72,1.74,3.3,3.3,0,0,0,1.38-.26l.16.65a4.11,4.11,0,0,1-1.67.32,2.33,2.33,0,0,1-2.45-2.53A2.42,2.42,0,0,1,116,40.39a2.1,2.1,0,0,1,2.06,2.34,2.19,2.19,0,0,1,0,.42Zm2.67-.65A1.29,1.29,0,0,0,115.92,41a1.49,1.49,0,0,0-1.4,1.46Z" transform="translate(-2.73 -3.3)" fill="#141414"></path>
    <path d="M121.24,44.57a2.62,2.62,0,0,0,1.21.35c.65,0,1-.32,1-.74s-.26-.66-.92-.91c-.91-.33-1.33-.82-1.33-1.42a1.54,1.54,0,0,1,1.72-1.46,2.28,2.28,0,0,1,1.22.31l-.22.66a2,2,0,0,0-1-.3c-.54,0-.83.31-.83.68s.29.6.94.86c.86.32,1.31.75,1.31,1.49s-.69,1.51-1.85,1.51a2.93,2.93,0,0,1-1.41-.35Z" transform="translate(-2.73 -3.3)" fill="#141414"></path>
    <path d="M130,43a2.45,2.45,0,0,1-2.49,2.65A2.38,2.38,0,0,1,125.09,43a2.44,2.44,0,0,1,2.47-2.64A2.36,2.36,0,0,1,130,43Zm-4,0c0,1.09.61,1.92,1.5,1.92S129,44.1,129,43c0-.85-.43-1.91-1.5-1.91S126,42.06,126,43Z" transform="translate(-2.73 -3.3)" fill="#141414"></path>
    <path d="M131.11,38.16H132v7.33h-.91Z" transform="translate(-2.73 -3.3)" fill="#141414"></path>
    <path d="M137.72,44.11c0,.53,0,1,0,1.38H137l-.05-.82h0a1.88,1.88,0,0,1-1.65.93c-.79,0-1.73-.45-1.73-2.19V40.49h.91v2.76c0,1,.3,1.6,1.12,1.6a1.31,1.31,0,0,0,1.19-.84,1.26,1.26,0,0,0,.08-.46V40.49h.91Z" transform="translate(-2.73 -3.3)" fill="#141414"></path>
    <path d="M140.32,39.3v1.19h1.3v.69h-1.3v2.7c0,.61.18,1,.68,1a1.74,1.74,0,0,0,.53-.07l0,.69a2.24,2.24,0,0,1-.8.13,1.3,1.3,0,0,1-1-.38,2,2,0,0,1-.35-1.31V41.18h-.78v-.69h.78v-.93Z" transform="translate(-2.73 -3.3)" fill="#141414"></path>
    <path d="M143.65,39.09a.56.56,0,1,1-1.12,0,.56.56,0,0,1,.57-.57A.54.54,0,0,1,143.65,39.09Zm-1,6.4v-5h.91v5Z" transform="translate(-2.73 -3.3)" fill="#141414"></path>
    <path d="M149.57,43a2.44,2.44,0,0,1-2.48,2.65A2.38,2.38,0,0,1,144.7,43a2.44,2.44,0,0,1,2.47-2.64A2.35,2.35,0,0,1,149.57,43Zm-3.95,0c0,1.09.62,1.92,1.51,1.92s1.52-.82,1.52-1.94c0-.85-.43-1.91-1.5-1.91S145.62,42.06,145.62,43Z" transform="translate(-2.73 -3.3)" fill="#141414"></path>
    <path d="M150.72,41.84c0-.52,0-.94,0-1.35h.8l.05.83h0a1.82,1.82,0,0,1,1.65-.93c.69,0,1.76.41,1.76,2.12v3h-.91V42.61c0-.81-.3-1.48-1.15-1.48a1.31,1.31,0,0,0-1.22.93,1.33,1.33,0,0,0-.06.42v3h-.91Z" transform="translate(-2.73 -3.3)" fill="#141414"></path>
    <path d="M156.32,44.57a2.62,2.62,0,0,0,1.21.35c.65,0,1-.32,1-.74s-.26-.66-.92-.91c-.91-.33-1.33-.82-1.33-1.42A1.54,1.54,0,0,1,158,40.39a2.28,2.28,0,0,1,1.22.31l-.22.66a2,2,0,0,0-1-.3c-.54,0-.82.31-.82.68s.28.6.93.86c.86.32,1.31.75,1.31,1.49s-.69,1.51-1.85,1.51a3,3,0,0,1-1.41-.35Z" transform="translate(-2.73 -3.3)" fill="#141414"></path>
    <path d="M163.05,40.49l1.08,2.95c.12.33.25.72.33,1h0c.09-.3.2-.68.32-1l1-2.93h1l-1.36,3.56a7.72,7.72,0,0,1-1.72,3.13,2.5,2.5,0,0,1-1.11.57l-.23-.75a2.48,2.48,0,0,0,.8-.44,3,3,0,0,0,.76-1,.75.75,0,0,0,.07-.22.7.7,0,0,0-.07-.24l-1.83-4.6Z" transform="translate(-2.73 -3.3)" fill="#141414"></path>
    <path d="M172,43a2.45,2.45,0,0,1-2.49,2.65A2.38,2.38,0,0,1,167.11,43a2.44,2.44,0,0,1,2.47-2.64A2.36,2.36,0,0,1,172,43Zm-4,0c0,1.09.62,1.92,1.5,1.92s1.52-.82,1.52-1.94c0-.85-.42-1.91-1.5-1.91S168,42.06,168,43Z" transform="translate(-2.73 -3.3)" fill="#141414"></path>
    <path d="M177.31,44.11c0,.53,0,1,0,1.38h-.8l-.05-.82h0a1.88,1.88,0,0,1-1.65.93c-.79,0-1.73-.45-1.73-2.19V40.49H174v2.76c0,1,.3,1.6,1.12,1.6a1.31,1.31,0,0,0,1.19-.84,1.26,1.26,0,0,0,.08-.46V40.49h.91Z" transform="translate(-2.73 -3.3)" fill="#141414"></path>
    <path d="M184.56,45.31a3.51,3.51,0,0,1-1.43.29,2.37,2.37,0,0,1-2.49-2.55,2.55,2.55,0,0,1,2.69-2.66,2.73,2.73,0,0,1,1.25.27l-.2.69a2.28,2.28,0,0,0-1-.24A1.74,1.74,0,0,0,181.56,43a1.72,1.72,0,0,0,1.73,1.87,2.67,2.67,0,0,0,1.12-.24Z" transform="translate(-2.73 -3.3)" fill="#141414"></path>
    <path d="M189.13,44.29a8.82,8.82,0,0,0,.07,1.2h-.81l-.07-.63h0a1.87,1.87,0,0,1-1.53.74,1.43,1.43,0,0,1-1.53-1.44c0-1.2,1.08-1.86,3-1.85V42.2a1,1,0,0,0-1.13-1.14,2.39,2.39,0,0,0-1.31.37l-.21-.61a3.33,3.33,0,0,1,1.65-.43c1.53,0,1.9,1,1.9,2Zm-.88-1.35c-1,0-2.11.15-2.11,1.12a.8.8,0,0,0,.85.87,1.24,1.24,0,0,0,1.22-.84.75.75,0,0,0,0-.29Z" transform="translate(-2.73 -3.3)" fill="#141414"></path>
    <path d="M190.6,41.84c0-.52,0-.94,0-1.35h.8l0,.83h0a1.85,1.85,0,0,1,1.65-.93c.69,0,1.77.41,1.77,2.12v3h-.91V42.61c0-.81-.3-1.48-1.16-1.48a1.36,1.36,0,0,0-1.28,1.35v3h-.9Z" transform="translate(-2.73 -3.3)" fill="#141414"></path>
    <path d="M199.6,39.3v1.19h1.3v.69h-1.3v2.7c0,.61.18,1,.68,1a1.74,1.74,0,0,0,.53-.07l0,.69a2.26,2.26,0,0,1-.81.13,1.33,1.33,0,0,1-1-.38,2,2,0,0,1-.35-1.31V41.18h-.77v-.69h.77v-.93Z" transform="translate(-2.73 -3.3)" fill="#141414"></path>
    <path d="M201.92,42.05c0-.59,0-1.09,0-1.56h.79l.05,1h0a1.5,1.5,0,0,1,1.39-1.09l.25,0v.86a1.51,1.51,0,0,0-.31,0,1.26,1.26,0,0,0-1.22,1.15,2.86,2.86,0,0,0,0,.42v2.67h-.91Z" transform="translate(-2.73 -3.3)" fill="#141414"></path>
    <path d="M209.47,44.11c0,.53,0,1,0,1.38h-.8l-.05-.82h0a1.88,1.88,0,0,1-1.65.93c-.79,0-1.73-.45-1.73-2.19V40.49h.91v2.76c0,1,.3,1.6,1.12,1.6a1.31,1.31,0,0,0,1.19-.84,1.26,1.26,0,0,0,.08-.46V40.49h.91Z" transform="translate(-2.73 -3.3)" fill="#141414"></path>
    <path d="M210.85,44.57a2.66,2.66,0,0,0,1.21.35c.65,0,1-.32,1-.74s-.26-.66-.92-.91c-.9-.33-1.33-.82-1.33-1.42a1.55,1.55,0,0,1,1.73-1.46,2.27,2.27,0,0,1,1.21.31l-.21.66a2,2,0,0,0-1-.3c-.53,0-.82.31-.82.68s.29.6.94.86c.85.32,1.31.75,1.31,1.49s-.69,1.51-1.86,1.51a2.89,2.89,0,0,1-1.4-.35Z" transform="translate(-2.73 -3.3)" fill="#141414"></path>
    <path d="M216.16,39.3v1.19h1.3v.69h-1.3v2.7c0,.61.17,1,.68,1a1.66,1.66,0,0,0,.52-.07l0,.69a2.31,2.31,0,0,1-.81.13,1.33,1.33,0,0,1-1-.38,2,2,0,0,1-.35-1.31V41.18h-.77v-.69h.77v-.93Z" transform="translate(-2.73 -3.3)" fill="#141414"></path>
    <path id="path26" class="cls-2" d="M38.5,12.15C38.35,5.1,31-.61,29,8.78a7.56,7.56,0,0,1,7.27,1.39" transform="translate(-2.73 -3.3)" fill="#293244"></path>
    <path id="path30" class="cls-2" d="M33.4,17A1.51,1.51,0,1,0,31.49,16,1.5,1.5,0,0,0,33.4,17h0M3.21,28.87S.15,20.74,9.44,16.39c5.24-1.83,6.91.68,11.49-2.71,3.92-3.29,5.73-2.81,5.73-2.81-3.42,2.86-1.86,10.65,1.84,9.81-2.39-.11-5.31-9.8,3.14-11.85,4.56-.94,9,3.73,7.75,9.21-.44,2.27-.64,7.27,4.28,7.49,3.66,0,4-2.55,4-2.55s1.19-.22,1.29.82c.34.64.59,1.18-.14,1.81S40.32,32.16,34.64,25c-1.76-2.87-7.82-1.94-6.81,3.41,1.59,4.72,2,6,2,6A4.09,4.09,0,0,1,27.63,40a3.93,3.93,0,0,1-5-2.48C22.25,36.33,20,29.87,20,29.87A3.89,3.89,0,0,0,15,28c-1.58.54-3,2.52-2.05,5.19,1.45,4.29,2.34,6.9,2.34,6.9A4,4,0,0,1,13,45a3.81,3.81,0,0,1-5.07-2.23c-.51-1.42-4.73-13.88-4.73-13.88" transform="translate(-2.73 -3.3)" fill="#293244"></path>
    <path id="path34" class="cls-2" d="M30.81,16.49a1.35,1.35,0,1,0,.84-1.72h0a1.36,1.36,0,0,0-.84,1.72" transform="translate(-2.73 -3.3)" fill="#293244"></path>
</svg>